<svg xmlns="http://www.w3.org/2000/svg" viewBox="225 55 340 170">
  <path fill="#23364a" d="M485.96,124.36l-17.82-1.35c-1.41-37.61-31.58-67.99-69.15-69.78l-1.38-17.37c-.11-1.13-1.02-2-2.13-2.08-1.12.08-2.03.95-2.13,2.08l-1.38,17.37c-37.56,1.79-67.73,32.17-69.14,69.78l-17.82,1.35c-1.19.11-2.1,1.1-2.11,2.29,0,1.19.91,2.19,2.1,2.3l17.92,1.43c2.4,37.89,34.02,67.99,72.56,67.99s70.16-30.1,72.56-67.99l17.92-1.43c1.19-.11,2.1-1.11,2.1-2.3,0-1.19-.92-2.19-2.11-2.29ZM457.09,122.17l-42.7-3.24,27.22-34.05c8.94,10.05,14.65,23.03,15.48,37.29ZM437.34,80.52l-34.01,27.41-3.46-43.63c14.41,1.02,27.46,6.98,37.47,16.22ZM391.1,64.31l-3.46,43.63-34.01-27.41c10-9.23,23.06-15.2,37.47-16.22ZM349.35,84.88l27.22,34.05-42.7,3.24c.83-14.27,6.53-27.24,15.48-37.29ZM334.02,131.28l42.52,3.39-26.44,32.81c-8.96-9.71-14.83-22.3-16.08-36.2ZM354.62,171.89l32.95-26.11,5.74,36.21c.19,1.07,1.1,1.85,2.17,1.9,1.07-.05,1.98-.83,2.17-1.9l5.74-36.21,32.95,26.11c-10.89,9.63-25.2,15.5-40.86,15.5s-29.97-5.87-40.86-15.5ZM440.87,167.48l-26.44-32.81,42.52-3.39c-1.24,13.9-7.11,26.49-16.08,36.2Z"/>
</svg>
