<?xml version="1.0" encoding="UTF-8" standalone="no"?> <svg xmlns="http://www.w3.org/2000/svg" xmlns:svg="http://www.w3.org/2000/svg" id="Layer_1" version="1.1" viewBox="0 0 792 288"><defs id="defs1"><style id="style1"> .st0 { fill: #23364a; } </style></defs><path class="st0" d="M485.96,124.36l-17.82-1.35c-1.41-37.61-31.58-67.99-69.15-69.78l-1.38-17.37c-.11-1.13-1.02-2-2.13-2.08-1.12.08-2.03.95-2.13,2.08l-1.38,17.37c-37.56,1.79-67.73,32.17-69.14,69.78l-17.82,1.35c-1.19.11-2.1,1.1-2.11,2.29,0,1.19.91,2.19,2.1,2.3l17.92,1.43c2.4,37.89,34.02,67.99,72.56,67.99s70.16-30.1,72.56-67.99l17.92-1.43c1.19-.11,2.1-1.11,2.1-2.3,0-1.19-.92-2.19-2.11-2.29ZM457.09,122.17l-42.7-3.24,27.22-34.05c8.94,10.05,14.65,23.03,15.48,37.29ZM437.34,80.52l-34.01,27.41-3.46-43.63c14.41,1.02,27.46,6.98,37.47,16.22ZM391.1,64.31l-3.46,43.63-34.01-27.41c10-9.23,23.06-15.2,37.47-16.22ZM349.35,84.88l27.22,34.05-42.7,3.24c.83-14.27,6.53-27.24,15.48-37.29ZM334.02,131.28l42.52,3.39-26.44,32.81c-8.96-9.71-14.83-22.3-16.08-36.2ZM354.62,171.89l32.95-26.11,5.74,36.21c.19,1.07,1.1,1.85,2.17,1.9,1.07-.05,1.98-.83,2.17-1.9l5.74-36.21,32.95,26.11c-10.89,9.63-25.2,15.5-40.86,15.5s-29.97-5.87-40.86-15.5ZM440.87,167.48l-26.44-32.81,42.52-3.39c-1.24,13.9-7.11,26.49-16.08,36.2Z" id="path1"></path><g id="g8"><path class="st0" d="M40.75,95.92h26.84v8.73h-16.7v17.02h13.1v8.73h-13.1v26.62h-10.15v-61.08Z" id="path2"></path><path class="st0" d="M74.88,95.92h15.04c5.23,0,9.04,1.15,11.44,3.45,2.4,2.3,3.6,5.83,3.6,10.6v3.75c0,6.34-2.21,10.36-6.64,12.04v.17c2.46.7,4.2,2.12,5.21,4.28,1.01,2.15,1.52,5.03,1.52,8.64v10.73c0,1.75.06,3.16.18,4.23.12,1.08.43,2.14.92,3.18h-10.33c-.37-.99-.62-1.92-.74-2.79-.12-.87-.18-2.44-.18-4.71v-11.17c0-2.79-.48-4.74-1.43-5.85-.95-1.11-2.6-1.66-4.93-1.66h-3.51v26.18h-10.15v-61.08ZM88.71,122.09c2.03,0,3.55-.49,4.57-1.48,1.01-.99,1.52-2.65,1.52-4.97v-4.71c0-2.21-.42-3.81-1.25-4.8-.83-.99-2.14-1.48-3.92-1.48h-4.61v17.45h3.69Z" id="path3"></path><path class="st0" d="M122.29,95.92h13.74l10.52,61.08h-10.15l-1.85-12.13v.17h-11.53l-1.85,11.96h-9.41l10.52-61.08ZM133.36,136.75l-4.52-30.19h-.18l-4.43,30.19h9.13Z" id="path4"></path><path class="st0" d="M156.79,153.9c-2.58-2.65-3.87-6.44-3.87-11.39v-32.11c0-4.94,1.29-8.74,3.87-11.39,2.58-2.65,6.33-3.97,11.25-3.97s8.67,1.32,11.25,3.97c2.58,2.65,3.87,6.44,3.87,11.39v5.24h-9.59v-5.85c0-4.01-1.75-6.02-5.26-6.02s-5.26,2.01-5.26,6.02v33.42c0,3.96,1.75,5.93,5.26,5.93s5.26-1.98,5.26-5.93v-11.96h-5.07v-8.73h14.67v19.98c0,4.95-1.29,8.74-3.87,11.39-2.58,2.65-6.33,3.97-11.25,3.97s-8.67-1.32-11.25-3.97Z" id="path5"></path><path class="st0" d="M199.96,95.92h13.74l10.52,61.08h-10.15l-1.85-12.13v.17h-11.53l-1.85,11.96h-9.41l10.52-61.08ZM211.02,136.75l-4.52-30.19h-.18l-4.43,30.19h9.13Z" id="path6"></path><path class="st0" d="M235.19,104.64h-10.61v-8.73h31.36v8.73h-10.61v52.36h-10.15v-52.36Z" id="path7"></path><path class="st0" d="M266.83,95.92h13.74l10.52,61.08h-10.15l-1.85-12.13v.17h-11.53l-1.85,11.96h-9.41l10.52-61.08ZM277.9,136.75l-4.52-30.19h-.18l-4.43,30.19h9.13Z" id="path8"></path></g><g id="g16"><path class="st0" d="M507.07,153.9c-2.45-2.65-3.67-6.44-3.67-11.39v-32.11c0-4.94,1.22-8.74,3.67-11.39,2.45-2.65,6-3.97,10.66-3.97s8.21,1.32,10.66,3.97c2.45,2.65,3.67,6.44,3.67,11.39v5.24h-9.09v-5.85c0-4.01-1.66-6.02-4.98-6.02s-4.98,2.01-4.98,6.02v33.42c0,3.96,1.66,5.93,4.98,5.93s4.98-1.98,4.98-5.93v-11.96h-4.81v-8.73h13.89v19.98c0,4.95-1.22,8.74-3.67,11.39-2.45,2.65-6,3.97-10.66,3.97s-8.21-1.32-10.66-3.97Z" id="path9"></path><path class="st0" d="M541.85,153.86c-2.51-2.68-3.76-6.46-3.76-11.34v-32.11c0-4.89,1.25-8.67,3.76-11.34,2.5-2.67,6.12-4.01,10.83-4.01s8.33,1.34,10.84,4.01c2.51,2.68,3.76,6.46,3.76,11.34v32.11c0,4.89-1.25,8.67-3.76,11.34-2.51,2.68-6.12,4.01-10.84,4.01s-8.33-1.34-10.83-4.01ZM557.67,143.13v-33.33c0-4.01-1.66-6.02-4.98-6.02s-4.98,2.01-4.98,6.02v33.33c0,4.01,1.66,6.02,4.98,6.02s4.98-2.01,4.98-6.02Z" id="path10"></path><path class="st0" d="M576.19,153.9c-2.39-2.65-3.58-6.44-3.58-11.39v-3.49h9.09v4.19c0,3.96,1.66,5.93,4.98,5.93,1.63,0,2.87-.48,3.71-1.44.84-.96,1.27-2.52,1.27-4.67,0-2.56-.58-4.81-1.75-6.76-1.16-1.95-3.32-4.29-6.47-7.03-3.96-3.49-6.73-6.65-8.3-9.47-1.57-2.82-2.36-6.01-2.36-9.55,0-4.83,1.22-8.57,3.67-11.21,2.45-2.65,6-3.97,10.66-3.97s8.08,1.32,10.44,3.97c2.36,2.65,3.54,6.44,3.54,11.39v2.53h-9.09v-3.14c0-2.09-.41-3.62-1.22-4.58-.82-.96-2.01-1.44-3.58-1.44-3.21,0-4.81,1.95-4.81,5.85,0,2.21.6,4.28,1.79,6.2,1.19,1.92,3.36,4.25,6.51,6.98,4.02,3.49,6.79,6.66,8.3,9.51,1.51,2.85,2.27,6.2,2.27,10.04,0,5-1.24,8.84-3.71,11.52-2.48,2.68-6.07,4.01-10.79,4.01s-8.19-1.32-10.57-3.97Z" id="path11"></path><path class="st0" d="M609.22,153.9c-2.39-2.65-3.58-6.44-3.58-11.39v-3.49h9.09v4.19c0,3.96,1.66,5.93,4.98,5.93,1.63,0,2.87-.48,3.71-1.44.84-.96,1.27-2.52,1.27-4.67,0-2.56-.58-4.81-1.75-6.76-1.16-1.95-3.32-4.29-6.47-7.03-3.96-3.49-6.73-6.65-8.3-9.47-1.57-2.82-2.36-6.01-2.36-9.55,0-4.83,1.22-8.57,3.67-11.21,2.45-2.65,6-3.97,10.66-3.97s8.08,1.32,10.44,3.97c2.36,2.65,3.54,6.44,3.54,11.39v2.53h-9.09v-3.14c0-2.09-.41-3.62-1.22-4.58-.82-.96-2.01-1.44-3.58-1.44-3.21,0-4.81,1.95-4.81,5.85,0,2.21.6,4.28,1.79,6.2,1.19,1.92,3.36,4.25,6.51,6.98,4.02,3.49,6.79,6.66,8.3,9.51,1.51,2.85,2.27,6.2,2.27,10.04,0,5-1.24,8.84-3.71,11.52-2.48,2.68-6.07,4.01-10.79,4.01s-8.19-1.32-10.57-3.97Z" id="path12"></path><path class="st0" d="M640.33,95.92h26.22v8.73h-16.6v16.14h13.2v8.73h-13.2v18.76h16.6v8.73h-26.22v-61.08Z" id="path13"></path><path class="st0" d="M672.58,95.92h9.61v52.36h15.82v8.73h-25.43v-61.08Z" id="path14"></path><path class="st0" d="M703.16,95.92h9.61v61.08h-9.61v-61.08Z" id="path15"></path><path class="st0" d="M720.46,95.92h12.06l9.35,36.56h.18v-36.56h8.56v61.08h-9.88l-11.53-44.59h-.17v44.59h-8.56v-61.08Z" id="path16"></path></g><g id="g57"><path class="st0" d="M48.71,242.3c-1.39,0-2.64-.24-3.75-.71-1.11-.47-2.03-1.15-2.76-2.03s-1.19-1.92-1.41-3.12l2.51-.39c.32,1.24.98,2.2,1.98,2.9,1,.69,2.19,1.04,3.55,1.04.88,0,1.68-.14,2.39-.42.71-.28,1.27-.67,1.7-1.19s.63-1.13.63-1.84c0-.43-.08-.8-.23-1.12-.15-.32-.36-.59-.61-.8-.26-.22-.55-.4-.87-.56-.33-.15-.67-.29-1.02-.39l-5-1.49c-.55-.15-1.07-.36-1.58-.61-.51-.25-.96-.56-1.36-.94-.4-.38-.72-.83-.96-1.37s-.36-1.17-.36-1.89c0-1.16.3-2.15.91-2.97.61-.83,1.43-1.46,2.46-1.89,1.04-.43,2.2-.65,3.5-.65,1.32,0,2.5.24,3.54.7,1.04.46,1.9,1.12,2.59,1.97.69.85,1.15,1.88,1.38,3.07l-2.58.45c-.13-.79-.44-1.48-.91-2.06-.47-.58-1.05-1.03-1.75-1.34-.7-.31-1.47-.47-2.3-.48-.8,0-1.52.12-2.17.39-.65.27-1.16.64-1.54,1.1-.38.47-.57,1-.57,1.6s.17,1.1.52,1.46.77.65,1.27.87c.5.21,1,.39,1.48.52l3.74,1.08c.43.12.92.28,1.48.49.56.21,1.1.5,1.63.88.53.38.96.88,1.31,1.5.35.62.52,1.41.52,2.35s-.19,1.79-.57,2.52c-.38.74-.9,1.35-1.57,1.86-.67.5-1.45.88-2.35,1.13s-1.84.38-2.86.38Z" id="path17"></path><path class="st0" d="M64.47,241.89v-17.33h-6.69v-2.3h15.82v2.3h-6.69v17.33h-2.43Z" id="path18"></path><path class="st0" d="M76.26,241.89v-19.63h7.76c.19,0,.42,0,.68.02.26.01.52.04.76.09,1.06.16,1.96.53,2.68,1.1s1.26,1.28,1.63,2.14.55,1.81.55,2.84c0,1.53-.4,2.85-1.19,3.95-.79,1.11-1.95,1.81-3.48,2.09l-.93.15h-6.04v7.25h-2.43ZM78.69,232.33h5.25c.17,0,.37,0,.59-.03.22-.02.43-.05.63-.1.63-.15,1.14-.41,1.53-.8.39-.39.68-.84.86-1.36.19-.52.28-1.06.28-1.6s-.09-1.08-.28-1.6-.47-.98-.86-1.36c-.39-.39-.9-.65-1.53-.8-.2-.05-.41-.08-.63-.1-.22-.02-.42-.03-.59-.03h-5.25v7.77ZM87.95,241.89l-3.87-7.99,2.4-.73,4.25,8.73h-2.78Z" id="path19"></path><path class="st0" d="M92.86,241.89l6.57-19.63h3.38l6.57,19.63h-2.52l-6.15-18.22h.76l-6.09,18.22h-2.52ZM96.02,237.29v-2.28h10.2v2.28h-10.2Z" id="path20"></path><path class="st0" d="M115.75,241.89v-17.33h-6.69v-2.3h15.82v2.3h-6.69v17.33h-2.43Z" id="path21"></path><path class="st0" d="M127.54,241.89v-19.63h12.41v2.3h-9.98v6.15h8.34v2.3h-8.34v6.57h9.98v2.3h-12.41ZM135.08,220h-1.99l1.8-4.5h1.98l-1.79,4.5Z" id="path22"></path><path class="st0" d="M150.84,242.3c-1.35,0-2.57-.23-3.68-.7-1.11-.47-2.06-1.15-2.86-2.03-.8-.89-1.41-1.96-1.85-3.22s-.65-2.69-.65-4.27c0-2.09.37-3.9,1.12-5.43.75-1.53,1.79-2.71,3.15-3.54,1.35-.83,2.95-1.25,4.77-1.25,2.2,0,3.97.51,5.32,1.54,1.35,1.03,2.27,2.42,2.78,4.18l-2.46.51c-.42-1.18-1.09-2.13-2.02-2.84-.93-.71-2.1-1.07-3.5-1.08-1.46,0-2.68.32-3.65.98-.97.66-1.7,1.59-2.19,2.78-.49,1.19-.74,2.57-.75,4.13-.01,1.56.23,2.94.72,4.12.49,1.18,1.22,2.11,2.2,2.77.98.67,2.2,1.01,3.66,1.02,1.26,0,2.32-.23,3.18-.72.86-.49,1.53-1.2,2-2.12.48-.92.77-2.04.87-3.35h-4.17v-2h6.74c.03.18.04.4.05.65,0,.25,0,.42,0,.51,0,1.79-.33,3.39-1,4.81s-1.65,2.52-2.96,3.33c-1.3.81-2.92,1.21-4.83,1.21Z" id="path23"></path><path class="st0" d="M163.13,241.89v-19.63h2.43v19.63h-2.43Z" id="path24"></path><path class="st0" d="M170.14,241.89v-19.63h12.41v2.3h-9.98v6.15h8.34v2.3h-8.34v6.57h9.98v2.3h-12.41Z" id="path25"></path><path class="st0" d="M192.8,241.89v-19.63h2.43v19.63h-2.43Z" id="path26"></path><path class="st0" d="M206.02,241.89v-19.63h12.41v2.3h-9.98v6.15h8.34v2.3h-8.34v6.57h9.98v2.3h-12.41ZM213.56,220h-1.99l1.8-4.5h1.98l-1.79,4.5Z" id="path27"></path><path class="st0" d="M229.58,242.3c-1.95,0-3.61-.43-4.98-1.29-1.36-.86-2.4-2.06-3.12-3.6s-1.07-3.31-1.07-5.33.36-3.79,1.07-5.33c.71-1.54,1.75-2.74,3.12-3.6,1.36-.86,3.02-1.3,4.98-1.3,2.27,0,4.14.58,5.61,1.73,1.47,1.15,2.48,2.71,3.03,4.66l-2.47.66c-.4-1.46-1.12-2.62-2.15-3.46s-2.37-1.27-4.03-1.27c-1.46,0-2.68.33-3.65.99-.97.66-1.7,1.59-2.2,2.78-.49,1.19-.74,2.57-.75,4.13,0,1.56.23,2.94.72,4.12.49,1.19,1.23,2.11,2.21,2.78s2.2,1,3.67,1c1.65,0,3-.43,4.03-1.28,1.03-.85,1.75-2,2.15-3.45l2.47.65c-.55,1.95-1.57,3.51-3.03,4.66s-3.34,1.73-5.61,1.73Z" id="path28"></path><path class="st0" d="M249.79,242.3c-1.95,0-3.61-.43-4.98-1.29-1.36-.86-2.4-2.06-3.12-3.6s-1.07-3.31-1.07-5.33.36-3.79,1.07-5.33c.71-1.54,1.75-2.74,3.12-3.6,1.36-.86,3.02-1.3,4.98-1.3s3.63.43,4.99,1.3c1.36.86,2.4,2.06,3.11,3.6.71,1.54,1.06,3.31,1.06,5.33s-.35,3.8-1.06,5.33c-.71,1.54-1.75,2.74-3.11,3.6-1.36.86-3.03,1.29-4.99,1.29ZM249.79,239.98c1.46,0,2.68-.32,3.65-.99.97-.67,1.7-1.6,2.19-2.79.49-1.19.74-2.57.74-4.13s-.24-2.94-.74-4.12c-.49-1.19-1.22-2.11-2.19-2.77s-2.19-1-3.65-1.01c-1.46,0-2.68.32-3.65.98s-1.7,1.59-2.19,2.79c-.49,1.2-.74,2.58-.75,4.14,0,1.56.23,2.94.72,4.12.49,1.18,1.22,2.11,2.2,2.77.98.67,2.2,1.01,3.66,1.02Z" id="path29"></path><path class="st0" d="M262.17,241.89v-19.63h2.46l10.24,15.34v-15.34h2.45v19.63h-2.45l-10.24-15.35v15.35h-2.46Z" id="path30"></path><path class="st0" d="M289.7,242.3c-1.95,0-3.61-.43-4.98-1.29-1.36-.86-2.4-2.06-3.12-3.6s-1.07-3.31-1.07-5.33.36-3.79,1.07-5.33c.71-1.54,1.75-2.74,3.12-3.6,1.36-.86,3.02-1.3,4.98-1.3s3.63.43,4.99,1.3c1.36.86,2.4,2.06,3.11,3.6.71,1.54,1.06,3.31,1.06,5.33s-.35,3.8-1.06,5.33c-.71,1.54-1.75,2.74-3.11,3.6-1.36.86-3.03,1.29-4.99,1.29ZM289.7,239.98c1.46,0,2.68-.32,3.65-.99.97-.67,1.7-1.6,2.19-2.79.49-1.19.74-2.57.74-4.13s-.24-2.94-.74-4.12c-.49-1.19-1.22-2.11-2.19-2.77s-2.19-1-3.65-1.01c-1.46,0-2.68.32-3.65.98s-1.7,1.59-2.19,2.79c-.49,1.2-.74,2.58-.75,4.14,0,1.56.23,2.94.72,4.12.49,1.18,1.22,2.11,2.2,2.77.98.67,2.2,1.01,3.66,1.02Z" id="path31"></path><path class="st0" d="M302.08,241.89v-19.63h2.21l7.42,15.64,7.37-15.64h2.24v19.62h-2.3v-14.29l-6.67,14.3h-1.29l-6.67-14.3v14.3h-2.3Z" id="path32"></path><path class="st0" d="M325.9,241.89v-19.63h2.43v19.63h-2.43Z" id="path33"></path><path class="st0" d="M332.91,241.89v-19.63h12.41v2.3h-9.98v6.15h8.35v2.3h-8.35v6.57h9.98v2.3h-12.41Z" id="path34"></path><path class="st0" d="M355.57,241.89v-19.63h2.43v19.63h-2.43Z" id="path35"></path><path class="st0" d="M376.74,242.3c-1.35,0-2.57-.23-3.68-.7-1.11-.47-2.06-1.15-2.86-2.03-.8-.89-1.41-1.96-1.85-3.22s-.65-2.69-.65-4.27c0-2.09.37-3.9,1.12-5.43.75-1.53,1.79-2.71,3.15-3.54,1.35-.83,2.95-1.25,4.77-1.25,2.2,0,3.97.51,5.32,1.54,1.35,1.03,2.27,2.42,2.78,4.18l-2.46.51c-.42-1.18-1.09-2.13-2.02-2.84-.93-.71-2.1-1.07-3.5-1.08-1.46,0-2.68.32-3.65.98-.97.66-1.7,1.59-2.19,2.78-.49,1.19-.74,2.57-.75,4.13-.01,1.56.23,2.94.72,4.12.49,1.18,1.22,2.11,2.2,2.77.98.67,2.2,1.01,3.66,1.02,1.26,0,2.32-.23,3.18-.72.86-.49,1.53-1.2,2-2.12.48-.92.77-2.04.87-3.35h-4.17v-2h6.74c.03.18.04.4.05.65,0,.25,0,.42,0,.51,0,1.79-.33,3.39-1,4.81s-1.65,2.52-2.96,3.33c-1.3.81-2.92,1.21-4.83,1.21Z" id="path36"></path><path class="st0" d="M396.83,242.3c-1.95,0-3.61-.43-4.98-1.29-1.36-.86-2.4-2.06-3.12-3.6s-1.07-3.31-1.07-5.33.36-3.79,1.07-5.33c.71-1.54,1.75-2.74,3.12-3.6,1.36-.86,3.02-1.3,4.98-1.3s3.63.43,4.99,1.3c1.36.86,2.4,2.06,3.11,3.6.71,1.54,1.06,3.31,1.06,5.33s-.35,3.8-1.06,5.33c-.71,1.54-1.75,2.74-3.11,3.6-1.36.86-3.03,1.29-4.99,1.29ZM396.83,239.98c1.46,0,2.68-.32,3.65-.99.97-.67,1.7-1.6,2.19-2.79.49-1.19.74-2.57.74-4.13s-.24-2.94-.74-4.12c-.49-1.19-1.22-2.11-2.19-2.77s-2.19-1-3.65-1.01c-1.46,0-2.68.32-3.65.98s-1.7,1.59-2.19,2.79c-.49,1.2-.74,2.58-.75,4.14,0,1.56.23,2.94.72,4.12.49,1.18,1.22,2.11,2.2,2.77.98.67,2.2,1.01,3.66,1.02Z" id="path37"></path><path class="st0" d="M416.95,242.3c-1.52,0-2.86-.31-4.02-.94-1.16-.63-2.08-1.51-2.73-2.64-.66-1.13-.99-2.46-.99-3.99v-12.46h2.46s0,12.26,0,12.26c0,.93.16,1.73.47,2.42.31.69.73,1.26,1.25,1.71.52.45,1.09.79,1.71,1.02.62.22,1.24.33,1.86.33s1.25-.11,1.87-.34c.62-.23,1.19-.57,1.7-1.02.51-.45.93-1.02,1.24-1.71.31-.69.47-1.49.47-2.41v-12.27h2.45v12.48c0,1.52-.33,2.84-.99,3.98s-1.57,2.02-2.73,2.65c-1.16.63-2.5.94-4.02.94Z" id="path38"></path><path class="st0" d="M433.8,241.89l-6.57-19.63h2.52l5.71,17.06,5.77-17.06h2.52l-6.57,19.63h-3.38Z" id="path39"></path><path class="st0" d="M446.29,241.89v-19.63h12.41v2.3h-9.98v6.15h8.34v2.3h-8.34v6.57h9.98v2.3h-12.41Z" id="path40"></path><path class="st0" d="M462.46,241.89v-19.63h7.76c.19,0,.42,0,.68.02.26.01.52.04.76.09,1.06.16,1.96.53,2.68,1.1s1.27,1.28,1.63,2.14.55,1.81.55,2.84c0,1.53-.39,2.85-1.19,3.95-.79,1.11-1.95,1.81-3.48,2.09l-.93.15h-6.04v7.25h-2.43ZM464.89,232.33h5.25c.17,0,.37,0,.59-.03.22-.02.43-.05.63-.1.63-.15,1.14-.41,1.53-.8.39-.39.68-.84.87-1.36.19-.52.28-1.06.28-1.6s-.09-1.08-.28-1.6-.48-.98-.87-1.36-.9-.65-1.53-.8c-.2-.05-.41-.08-.63-.1-.22-.02-.42-.03-.59-.03h-5.25v7.77ZM474.15,241.89l-3.87-7.99,2.4-.73,4.25,8.73h-2.78Z" id="path41"></path><path class="st0" d="M480.42,241.89v-19.63h2.46l10.24,15.34v-15.34h2.46v19.63h-2.46l-10.24-15.35v15.35h-2.46Z" id="path42"></path><path class="st0" d="M498.51,241.89l6.57-19.63h3.38l6.57,19.63h-2.52l-6.15-18.22h.76l-6.09,18.22h-2.52ZM501.68,237.29v-2.28h10.2v2.28h-10.2Z" id="path43"></path><path class="st0" d="M517.99,241.89v-19.63h2.46l10.24,15.34v-15.34h2.46v19.63h-2.46l-10.24-15.35v15.35h-2.46Z" id="path44"></path><path class="st0" d="M545.51,242.3c-1.95,0-3.61-.43-4.98-1.29-1.36-.86-2.4-2.06-3.12-3.6s-1.07-3.31-1.07-5.33.36-3.79,1.07-5.33c.71-1.54,1.75-2.74,3.12-3.6,1.36-.86,3.02-1.3,4.98-1.3,2.27,0,4.14.58,5.61,1.73,1.47,1.15,2.48,2.71,3.03,4.66l-2.47.66c-.4-1.46-1.12-2.62-2.15-3.46s-2.37-1.27-4.03-1.27c-1.46,0-2.68.33-3.65.99-.97.66-1.7,1.59-2.2,2.78-.49,1.19-.74,2.57-.75,4.13-.01,1.56.23,2.94.72,4.12.49,1.19,1.23,2.11,2.21,2.78s2.2,1,3.67,1c1.65,0,3-.43,4.03-1.28,1.03-.85,1.75-2,2.15-3.45l2.47.65c-.55,1.95-1.57,3.51-3.03,4.66s-3.34,1.73-5.61,1.73Z" id="path45"></path><path class="st0" d="M557.65,241.89v-19.63h12.41v2.3h-9.98v6.15h8.34v2.3h-8.34v6.57h9.98v2.3h-12.41Z" id="path46"></path><path class="st0" d="M580.31,241.89v-19.63h2.43v19.63h-2.43Z" id="path47"></path><path class="st0" d="M593.81,241.89v-19.63h2.43v19.63h-2.43Z" id="path48"></path><path class="st0" d="M600.82,241.89v-19.63h2.46l10.24,15.34v-15.34h2.46v19.63h-2.46l-10.24-15.35v15.35h-2.46Z" id="path49"></path><path class="st0" d="M620.27,241.89v-19.63h2.46l10.24,15.34v-15.34h2.46v19.63h-2.46l-10.24-15.35v15.35h-2.46Z" id="path50"></path><path class="st0" d="M647.8,242.3c-1.95,0-3.61-.43-4.98-1.29-1.36-.86-2.4-2.06-3.12-3.6s-1.07-3.31-1.07-5.33.36-3.79,1.07-5.33c.71-1.54,1.75-2.74,3.12-3.6,1.36-.86,3.02-1.3,4.98-1.3s3.63.43,4.99,1.3c1.36.86,2.4,2.06,3.11,3.6.71,1.54,1.06,3.31,1.06,5.33s-.36,3.8-1.06,5.33c-.71,1.54-1.75,2.74-3.11,3.6-1.36.86-3.03,1.29-4.99,1.29ZM647.8,239.98c1.46,0,2.68-.32,3.65-.99.97-.67,1.7-1.6,2.19-2.79.49-1.19.74-2.57.74-4.13s-.24-2.94-.74-4.12c-.49-1.19-1.22-2.11-2.19-2.77s-2.19-1-3.65-1.01c-1.46,0-2.68.32-3.65.98-.97.66-1.7,1.59-2.19,2.79-.49,1.2-.74,2.58-.75,4.14,0,1.56.23,2.94.72,4.12.49,1.18,1.22,2.11,2.2,2.77.98.67,2.2,1.01,3.66,1.02Z" id="path51"></path><path class="st0" d="M664.16,241.89l-6.57-19.63h2.52l5.71,17.06,5.77-17.06h2.52l-6.57,19.63h-3.38Z" id="path52"></path><path class="st0" d="M673.38,241.89l6.57-19.63h3.38l6.57,19.63h-2.52l-6.15-18.22h.76l-6.09,18.22h-2.52ZM676.54,237.29v-2.28h10.2v2.28h-10.2Z" id="path53"></path><path class="st0" d="M696.27,241.89v-17.33h-6.69v-2.3h15.81v2.3h-6.69v17.33h-2.43Z" id="path54"></path><path class="st0" d="M708.34,241.89v-19.63h2.43v19.63h-2.43Z" id="path55"></path><path class="st0" d="M723.42,242.3c-1.95,0-3.61-.43-4.98-1.29-1.36-.86-2.4-2.06-3.12-3.6s-1.07-3.31-1.07-5.33.36-3.79,1.07-5.33c.71-1.54,1.75-2.74,3.12-3.6,1.36-.86,3.02-1.3,4.98-1.3s3.63.43,4.99,1.3c1.36.86,2.4,2.06,3.11,3.6.71,1.54,1.06,3.31,1.06,5.33s-.36,3.8-1.06,5.33c-.71,1.54-1.75,2.74-3.11,3.6-1.36.86-3.03,1.29-4.99,1.29ZM723.42,239.98c1.46,0,2.68-.32,3.65-.99.97-.67,1.7-1.6,2.19-2.79.49-1.19.74-2.57.74-4.13s-.24-2.94-.74-4.12c-.49-1.19-1.22-2.11-2.19-2.77s-2.19-1-3.65-1.01c-1.46,0-2.68.32-3.65.98-.97.66-1.7,1.59-2.19,2.79-.49,1.2-.74,2.58-.75,4.14,0,1.56.23,2.94.72,4.12.49,1.18,1.22,2.11,2.2,2.77.98.67,2.2,1.01,3.66,1.02Z" id="path56"></path><path class="st0" d="M735.8,241.89v-19.63h2.46l10.24,15.34v-15.34h2.46v19.63h-2.46l-10.24-15.35v15.35h-2.46Z" id="path57"></path></g></svg> 